<svg width="88" height="45" viewBox="0 0 88 45" fill="none" xmlns="http://www.w3.org/2000/svg">
<g style="mix-blend-mode:luminosity" opacity="0.41">
<path d="M37.104 27.804C35.7111 27.804 35.2099 27.1302 35.2099 25.8269V18.5473C35.2099 17.1996 35.7053 16.5702 37.104 16.5702H37.7778C39.1707 16.5702 39.6718 17.244 39.6718 18.5473V20.0749H45.2447V24.2534H39.6718V25.781C39.6718 27.1287 39.1765 27.7581 37.7778 27.7581H37.104V27.804ZM19.3998 24.4348L20.883 16.3014H21.1977L22.7253 24.4348H19.3998ZM11.8506 33.1073H17.7367L18.4557 29.2879H23.6228L24.3418 33.1073H30.461L29.7871 29.7826C30.8653 32.2084 33.2022 33.4672 36.7965 33.4672H37.4704C42.2332 33.4672 44.7945 31.2657 45.1922 27.4463V33.1081H59.4442V29.513C60.6571 32.2084 63.0836 33.4672 66.7683 33.4672H67.622C72.8795 33.4672 75.5756 30.7718 75.5756 25.6485V11.2676H69.366V25.91C69.366 27.1681 68.9165 27.804 67.5689 27.804H66.804C65.4111 27.804 65.0068 27.1302 65.0068 25.91V11.2239H58.806V27.1309H51.4309V11.2239H45.185V16.6612C44.7807 13.0218 42.4437 10.8647 37.7705 10.8647H36.7885C31.4415 10.8647 29.0157 13.5601 29.0157 18.5487V26.1868L25.9153 11.2239H16.389L11.8506 33.1073Z" fill="#EF404E"/>
</g>
</svg>
